

<svg id="new_group" xmlns="http://www.w3.org/2000/svg" width="26.026" height="18.928" viewBox="0 0 26.026 18.928">
  <g id="_3-User" data-name="3-User" transform="translate(0 0)">
    <path id="_3-Friends" data-name="3-Friends" d="M12.953,12.468c4.059,0,7.525.644,7.525,3.219s-3.444,3.241-7.525,3.241c-4.059,0-7.525-.644-7.525-3.218S8.871,12.468,12.953,12.468Zm6.49-1.551a18.4,18.4,0,0,1,3.837.336A3.262,3.262,0,0,1,25.8,12.8a2.274,2.274,0,0,1,0,1.975c-.544,1.182-2.3,1.561-2.982,1.659a.214.214,0,0,1-.239-.243c.348-3.274-2.424-4.826-3.141-5.183a.053.053,0,0,1-.034-.055A.044.044,0,0,1,19.443,10.918Zm-13.151,0,.292,0a.043.043,0,0,1,.037.03A.055.055,0,0,1,6.588,11c-.718.357-3.49,1.909-3.142,5.182a.214.214,0,0,1-.238.244c-.682-.1-2.437-.477-2.982-1.659a2.267,2.267,0,0,1,0-1.975,3.263,3.263,0,0,1,2.52-1.544,18.5,18.5,0,0,1,3.838-.335ZM12.953,0a4.975,4.975,0,0,1,4.98,5.008,4.98,4.98,0,1,1-9.959,0A4.975,4.975,0,0,1,12.953,0Zm6.76.835a4.23,4.23,0,0,1,4.052,5.34,4.156,4.156,0,0,1-4.17,3.1,4.018,4.018,0,0,1-.572-.055.187.187,0,0,1-.126-.289,6.911,6.911,0,0,0-.1-7.822.122.122,0,0,1-.019-.13.153.153,0,0,1,.1-.059A4.147,4.147,0,0,1,19.713.835Zm-13.4,0a4.165,4.165,0,0,1,.839.086.161.161,0,0,1,.1.059.124.124,0,0,1-.019.13,6.911,6.911,0,0,0-.1,7.822A.187.187,0,0,1,7,9.221a3.883,3.883,0,0,1-.572.055,4.156,4.156,0,0,1-4.17-3.1A4.229,4.229,0,0,1,6.312.835Z" transform="translate(0 0)" fill="#a9aec1"/>
  </g>
</svg>
